<svg width="698" height="192" viewBox="0 0 698 192" fill="none" xmlns="http://www.w3.org/2000/svg">
<path fill-rule="evenodd" clip-rule="evenodd" d="M0 95.9977V191.84H40.285H80.5701V183.202V174.564H49.3286H18.0872V139.188V103.813H43.9847H69.8822V95.175V86.5369H43.9847H18.0872V51.9843V17.4318H49.3286H80.5701V8.79363V0.155486H40.285H0V95.9977ZM97.8351 95.9204V191.84H107.29H116.744V153.657V115.475L133.804 115.141C148.644 114.851 151.584 114.57 156.405 112.982C168.298 109.063 177.074 100.281 180.992 88.3797C182.64 83.3704 182.849 80.7863 183.149 61.6368C183.423 44.1664 183.241 39.2484 182.115 33.6657C178.752 17.0031 170.118 7.12934 154.563 2.15789C150.761 0.943614 145.885 0.656499 123.938 0.357043L97.8351 0V95.9204ZM234.695 1.34179C217.568 4.49595 205.704 17.0122 201.863 35.9774C200.693 41.7576 200.559 49.55 200.777 99.3106L201.026 156.053L203.273 162.699C208.361 177.756 217.742 187.003 231.592 190.612C238.765 192.482 419.851 192.453 427.137 190.581C442.355 186.67 452.13 176.527 456.843 159.755C458.233 154.807 458.345 150.084 458.345 96.409C458.345 43.528 458.217 37.9379 456.892 33.0627C452.515 16.9489 443.537 7.21737 428.337 2.11017C424.059 0.673775 418.857 0.58328 332.146 0.434375C260.11 0.31015 239.239 0.505126 234.695 1.34179ZM480.954 95.9977V191.84H489.998H499.041V157.342V122.844L503.769 115.396C506.369 111.299 508.681 107.95 508.907 107.953C509.133 107.957 520.565 126.833 534.312 149.9L559.306 191.84H569.048C574.405 191.84 578.789 191.705 578.789 191.54C578.789 191.375 565.641 168.542 549.57 140.801C532.464 111.27 520.544 89.858 520.817 89.1481C521.073 88.48 533.482 68.4091 548.392 44.5456C563.302 20.6813 575.501 0.931274 575.501 0.655676C575.501 0.380901 571.133 0.155486 565.794 0.155486H556.086L528.684 43.9632C513.612 68.0578 500.777 88.313 500.161 88.9753C499.215 89.993 499.041 83.1968 499.041 45.1676V0.155486H489.998H480.954V95.9977ZM631.823 2.00652C631.583 3.02499 622.129 45.5057 610.814 96.409C599.5 147.312 590.045 189.608 589.804 190.4C589.405 191.71 590.173 191.84 598.289 191.84H607.211L611.143 174.358C613.306 164.743 615.434 155.488 615.873 153.791L616.671 150.706L643.565 150.708L670.458 150.711L674.515 168.602C676.746 178.442 678.891 187.696 679.281 189.166L679.99 191.84H688.995C695.782 191.84 698 191.579 698 190.783C698 190.201 688.546 148.091 676.992 97.2029C665.437 46.3152 655.772 3.66257 655.513 2.41786L655.043 0.155486H643.651C632.515 0.155486 632.25 0.19662 631.823 2.00652ZM148.43 18.7012C154.716 20.3292 158.522 23.3658 161.319 28.9847C164.37 35.1161 165.239 41.6654 165.239 58.5658C165.239 74.5817 164.37 81.7892 161.832 86.8421C159.47 91.547 158.068 92.9669 153.33 95.4539C149.369 97.532 148.627 97.6217 132.982 97.9071L116.744 98.2033V57.8171V17.4318H130.137C139.54 17.4318 144.989 17.8102 148.43 18.7012ZM425.459 19.7386C430.616 22.1153 433.719 25.0358 436.126 29.772C439.861 37.1251 439.968 39.1966 439.694 98.8771L439.436 155.231L437.478 160.09C434.926 166.43 429.954 171.404 424.152 173.426C419.901 174.907 415.724 174.975 329.68 174.975C253.728 174.975 239.016 174.79 235.57 173.789C229.278 171.963 223.488 165.874 221.054 158.521C219.154 152.783 219.146 152.577 218.871 100.934C218.691 67.1562 218.903 46.6698 219.479 42.1122C221.13 29.0636 226.801 21.2342 236.508 18.6016C239.682 17.7403 258.583 17.5568 330.913 17.6843L421.349 17.8431L425.459 19.7386ZM655.179 82.6538C661.548 110.155 666.759 133.016 666.759 133.454C666.759 133.951 657.884 134.252 643.239 134.252H619.718L620.275 132.03C620.582 130.809 625.59 108.855 631.406 83.2462C643.225 31.1985 643.021 32.0705 643.357 32.407C643.491 32.5419 648.811 55.1525 655.179 82.6538Z" fill="#2800BE"/>
</svg>
