<svg width="674" height="118" viewBox="0 0 674 118" fill="none" xmlns="http://www.w3.org/2000/svg">
<path d="M264.119 1.80683C258.248 2.71015 251.586 3.72638 249.44 4.06512L245.488 4.7426L249.214 5.53301C251.247 5.98466 253.279 6.77506 253.731 7.22672C254.183 7.67838 254.747 31.0517 254.86 59.2802C255.312 113.705 255.425 112.915 250.005 115.06C248.65 115.625 255.425 116.076 266.377 116.076C282.976 116.076 284.67 115.963 281.508 114.608C278.121 113.027 278.008 112.915 277.33 102.639C276.878 96.8807 276.54 71.3621 276.54 45.9563C276.54 20.6635 276.201 0.000201046 275.749 0.000201046C275.185 0.113115 269.991 0.903516 264.119 1.80683Z" fill="black"/>
<path d="M2.16099 9.93507C4.64511 10.6126 5.09677 11.6288 5.88717 17.3874C6.33883 21.1136 6.56466 43.8094 6.45174 67.7472C6.113 114.72 6.113 114.494 0.128536 115.397C-1.56518 115.623 13.6783 115.962 34.1158 116.075L71.0388 116.188V112.461C71.0388 110.542 71.6033 102.525 72.1679 94.7338C72.7325 87.0556 72.9583 80.5066 72.7325 80.2807C72.5066 80.0549 69.0063 84.7973 64.9414 91.0076C60.8765 97.105 55.2307 105.009 52.4079 108.622L47.2138 115.171L39.6486 114.833L32.0833 114.494L31.4058 89.6526C30.9542 75.99 30.9542 52.5038 31.2929 37.4862C31.7446 13.7742 32.0833 10.048 33.6641 9.70924C34.6803 9.3705 27.3409 9.14467 17.4044 9.14467C7.46797 9.14467 0.580193 9.48341 2.16099 9.93507Z" fill="black"/>
<path d="M47.7807 9.71094C48.0065 10.2755 52.636 17.0504 57.8301 24.9544C66.6374 38.1654 67.5407 39.0687 68.1053 36.2458C69.1215 31.5034 72.1702 11.9692 72.1702 10.2755C72.1702 9.25928 68.8957 8.92054 59.6367 8.92054C52.8618 8.92054 47.4419 9.25928 47.7807 9.71094Z" fill="black"/>
<path d="M87.1823 39.0675C87.4081 39.632 97.4575 56.5692 109.426 76.8938L131.106 113.93H142.962C151.995 113.93 154.705 113.591 154.253 112.462C154.028 111.784 144.204 95.073 132.687 75.5388C114.733 45.1648 111.233 39.8579 108.523 39.2933C104.119 38.2771 86.6177 38.1641 87.1823 39.0675Z" fill="black"/>
<path d="M140.48 39.9689C135.737 42.453 134.27 44.8242 134.27 49.9053C134.27 61.7613 150.19 65.0358 155.723 54.1961C160.24 45.5017 149.4 35.3394 140.48 39.9689Z" fill="#73BF93"/>
<path d="M206.761 40.9859C210.939 44.9379 212.294 50.1319 212.971 64.472L213.649 76.6668H202.357H191.066L190.501 72.489C189.146 62.8912 192.759 47.8736 197.502 42.7925L200.889 39.0663L197.389 39.8567C178.984 43.47 166.902 64.0204 170.402 85.9258C173.112 103.992 183.952 114.832 201.002 116.864C216.359 118.671 229.005 111.444 232.957 98.4593L233.747 96.0881L227.763 98.3464C220.649 101.056 211.277 100.605 204.503 97.1043C199.083 94.2814 197.163 92.1361 193.663 84.5708L190.727 78.3605L210.261 77.683C220.875 77.2314 230.812 76.8926 232.279 76.7797C234.651 76.6668 234.764 76.2151 234.764 68.9886C234.764 54.5356 225.392 41.8892 213.423 39.9696C211.164 39.518 208.116 39.0663 206.535 38.7276L203.712 38.163L206.761 40.9859Z" fill="black"/>
<path d="M476.513 41.5537C479.449 45.5057 480.804 52.0547 480.916 62.217C480.916 67.1852 480.465 69.8952 479.561 70.2339C478.432 70.6856 478.432 70.9114 479.561 70.9114C480.578 71.0243 480.916 75.2021 480.916 88.1873C480.916 102.753 480.578 105.689 478.997 107.609C477.868 108.964 477.755 109.302 478.658 108.625C481.142 106.367 481.707 106.818 482.61 112.351C483.288 117.206 483.513 117.432 486.336 116.868C488.03 116.529 494.24 115.625 500.112 114.948C510.274 113.819 514.452 112.803 509.484 112.803C508.242 112.803 506.661 112.125 505.983 111.335C505.306 110.544 504.628 99.0271 504.403 82.3158C504.064 65.2657 503.499 53.5226 502.709 51.603C499.773 44.8282 491.756 40.4245 479.449 38.9566L474.142 38.2792L476.513 41.5537Z" fill="black"/>
<path d="M657.289 40.5354C652.434 43.4712 650.853 47.649 652.547 53.2947C654.127 58.8276 661.015 62.4408 666.209 60.6342C670.726 59.0534 674 54.5368 674 49.9073C674 44.8262 672.42 42.1162 668.355 39.9709C663.951 37.7126 661.806 37.8255 657.289 40.5354Z" fill="#73BF93"/>
<path d="M307.596 41.5521C300.822 42.4554 296.531 43.4716 298.225 43.6974C303.87 44.3749 303.983 45.0524 303.983 79.6042V112.011L301.273 114.043C298.563 116.076 298.902 116.188 316.63 116.076C326.566 115.963 333.68 115.624 332.438 115.398C331.196 115.059 329.276 114.043 328.26 113.027C326.453 111.446 326.227 108.51 326.227 81.185C326.227 51.1498 326.227 50.924 328.824 49.1173L331.309 47.1978L328.824 48.4398C326.566 49.4561 326.227 49.3432 326.227 47.0849C326.227 41.8908 324.872 39.4067 322.388 39.5196C321.146 39.6325 314.484 40.5358 307.596 41.5521Z" fill="black"/>
<path d="M340.451 42.2302C332.322 45.5047 330.063 47.5371 336.274 45.8434C341.919 44.3755 346.097 45.9563 347.904 50.36C348.694 52.3925 349.146 63.571 349.259 82.4277C349.372 113.705 349.259 114.495 343.387 115.399C341.694 115.625 349.259 115.85 360.099 115.85C370.938 115.963 378.842 115.625 377.6 115.399C376.358 115.06 374.439 114.044 373.422 113.027C371.616 111.447 371.39 108.511 371.39 81.0727V50.9246L375.342 48.4405C381.214 44.8272 387.198 44.2626 390.585 47.0855C393.182 49.2309 393.408 50.1342 394.086 65.4905C394.537 74.4108 394.65 88.7509 394.312 97.3324C393.634 112.689 393.521 112.915 390.698 114.495C388.101 115.963 389.682 116.076 405.829 116.076C415.765 116.076 423.105 115.737 422.201 115.399C421.298 115.06 419.604 114.044 418.588 113.027C416.782 111.447 416.556 108.511 416.556 81.976C416.556 54.8766 416.33 52.1666 414.297 47.8759C408.991 36.9232 392.392 36.5845 375.794 47.1984L370.713 50.36L368.793 47.1984C364.276 39.1815 352.759 37.149 340.451 42.2302Z" fill="black"/>
<path d="M442.642 40.9872C432.819 46.4071 436.996 61.9893 448.175 61.9893C453.934 61.9893 459.466 56.4565 459.466 50.8107C459.466 42.3422 450.094 36.8094 442.642 40.9872Z" fill="#73BF93"/>
<path d="M538.504 40.7607C527.325 42.1157 523.938 42.9061 526.083 43.5836C530.374 45.0515 530.6 46.971 530.6 79.4903C530.6 112.8 530.374 114.268 525.519 115.397C524.277 115.736 531.955 115.962 542.456 115.962C553.07 115.962 560.635 115.623 559.393 115.397C558.151 115.058 556.57 114.381 555.893 113.816C553.86 112.235 552.844 88.1847 553.747 67.7472L554.538 49.7939L558.828 47.4227C564.926 44.0352 570.684 44.2611 573.168 48.1001C574.975 50.8101 575.201 54.7621 575.54 81.297C575.878 110.542 575.878 111.558 573.62 113.816L571.249 116.188H588.525C603.091 116.188 605.236 115.962 602.865 114.72C600.381 113.478 599.929 112.348 599.365 105.461C598.913 101.057 598.574 86.9427 598.461 73.8446C598.348 47.7614 598.01 46.2935 591.573 41.8899C588.186 39.5186 586.605 39.2928 579.605 39.6316C573.168 39.9703 570.007 40.7607 563.119 44.2611C558.377 46.5193 554.199 48.4389 553.86 48.4389C553.521 48.4389 553.183 46.4064 553.183 43.9223C553.183 38.7282 553.747 38.8412 538.504 40.7607Z" fill="black"/>
<path d="M636.737 40.8757C626.801 44.1502 621.268 50.4734 620.139 59.5066C619.01 69.2172 624.43 76.8954 640.125 87.6222C652.997 96.4296 657.288 105.124 653.11 113.254L651.416 116.528L655.029 115.738C665.869 113.593 672.983 105.124 673.096 94.0584C673.209 85.1381 669.369 79.4924 657.288 70.798C639.673 58.0387 635.269 51.1509 639.56 42.9081C640.463 40.9886 641.141 39.4078 641.028 39.5207C640.802 39.5207 638.883 40.1982 636.737 40.8757Z" fill="black"/>
<path d="M45.6312 51.9371C41.6792 54.1954 39.4209 57.9215 39.4209 62.3252C39.4209 73.7296 55.116 77.6816 60.3101 67.6322C62.7942 62.7769 62.3425 59.0507 58.9551 55.2116C55.4547 51.3725 49.2444 49.7917 45.6312 51.9371Z" fill="#73BF93"/>
<path d="M463.414 74.8613C452.122 78.5874 446.703 81.6361 442.073 86.9431C435.411 94.8471 435.411 105.461 442.299 112.01C448.509 117.995 457.994 119.011 467.705 114.833L473.576 112.236L469.737 111.671C463.978 110.881 461.381 105.8 461.381 95.7504C461.381 86.4915 464.882 78.7004 470.753 74.6354C475.383 71.4738 473.463 71.5868 463.414 74.8613Z" fill="black"/>
<path d="M93.6216 94.395C90.2342 95.6371 86.8468 99.702 86.1693 103.315C84.9272 110.09 90.1213 116.075 97.3478 116.188C109.43 116.188 112.591 98.7987 101.3 94.8467C97.5736 93.4917 96.2187 93.4917 93.6216 94.395Z" fill="#73BF93"/>
<path d="M625.786 95.1861C621.383 97.2185 619.802 100.041 619.802 105.8C619.802 109.526 620.479 110.881 623.302 113.252C629.625 118.559 637.303 117.091 640.691 109.752C645.207 100.267 635.497 90.8953 625.786 95.1861Z" fill="#73BF93"/>
</svg>
