<svg width="696" height="184" viewBox="0 0 696 184" fill="none" xmlns="http://www.w3.org/2000/svg">
<path d="M136.597 152.485H148.479V155.449H139.873V160.285H147.985V163.249H139.873V170.893H136.597V152.485ZM159.699 152.485H162.533L170.463 170.893H166.719L165.003 166.681H157.021L155.357 170.893H151.691L159.699 152.485ZM163.859 163.873L161.025 156.385L158.139 163.873H163.859ZM176.226 152.485H181.218L186.132 165.381L191.098 152.485H196.038V170.893H192.918V155.605H192.866L187.276 170.893H184.988L179.398 155.605H179.346V170.893H176.226V152.485ZM203.781 152.485H207.057V170.893H203.781V152.485ZM214.735 152.485H218.011V167.929H225.837V170.893H214.735V152.485ZM233.461 163.015L226.545 152.485H230.653L235.177 159.817L239.753 152.485H243.653L236.737 163.015V170.893H233.461V163.015ZM260.313 152.485H266.709C267.593 152.485 268.443 152.571 269.257 152.745C270.089 152.901 270.826 153.178 271.467 153.577C272.109 153.975 272.62 154.513 273.001 155.189C273.383 155.865 273.573 156.723 273.573 157.763C273.573 159.097 273.201 160.215 272.455 161.117C271.727 162.018 270.679 162.564 269.309 162.755L274.197 170.893H270.245L265.981 163.093H263.589V170.893H260.313V152.485ZM266.137 160.285C266.605 160.285 267.073 160.267 267.541 160.233C268.009 160.181 268.434 160.077 268.815 159.921C269.214 159.747 269.535 159.496 269.777 159.167C270.02 158.82 270.141 158.343 270.141 157.737C270.141 157.199 270.029 156.766 269.803 156.437C269.578 156.107 269.283 155.865 268.919 155.709C268.555 155.535 268.148 155.423 267.697 155.371C267.264 155.319 266.839 155.293 266.423 155.293H263.589V160.285H266.137ZM280.33 152.485H292.524V155.449H283.606V159.973H292.056V162.937H283.606V167.929H292.992V170.893H280.33V152.485ZM305.819 152.485H308.653L316.583 170.893H312.839L311.123 166.681H303.141L301.477 170.893H297.811L305.819 152.485ZM309.979 163.873L307.145 156.385L304.259 163.873H309.979ZM322.268 152.485H325.544V167.929H333.37V170.893H322.268V152.485ZM350.724 152.485H362.918V155.449H354V159.973H362.45V162.937H354V167.929H363.386V170.893H350.724V152.485ZM379.281 156.437C378.934 155.934 378.466 155.57 377.877 155.345C377.305 155.102 376.698 154.981 376.057 154.981C375.675 154.981 375.303 155.024 374.939 155.111C374.592 155.197 374.271 155.336 373.977 155.527C373.699 155.717 373.474 155.969 373.301 156.281C373.127 156.575 373.041 156.931 373.041 157.347C373.041 157.971 373.257 158.447 373.691 158.777C374.124 159.106 374.661 159.392 375.303 159.635C375.944 159.877 376.646 160.111 377.409 160.337C378.171 160.562 378.873 160.874 379.515 161.273C380.156 161.671 380.693 162.2 381.127 162.859C381.56 163.517 381.777 164.393 381.777 165.485C381.777 166.473 381.595 167.339 381.231 168.085C380.867 168.813 380.373 169.419 379.749 169.905C379.142 170.39 378.431 170.754 377.617 170.997C376.802 171.239 375.944 171.361 375.043 171.361C373.899 171.361 372.798 171.17 371.741 170.789C370.683 170.407 369.773 169.766 369.011 168.865L371.481 166.473C371.879 167.079 372.399 167.556 373.041 167.903C373.699 168.232 374.393 168.397 375.121 168.397C375.502 168.397 375.883 168.345 376.265 168.241C376.646 168.137 376.993 167.981 377.305 167.773C377.617 167.565 377.868 167.305 378.059 166.993C378.249 166.663 378.345 166.291 378.345 165.875C378.345 165.199 378.128 164.679 377.695 164.315C377.261 163.951 376.724 163.647 376.083 163.405C375.441 163.145 374.739 162.902 373.977 162.677C373.214 162.451 372.512 162.148 371.871 161.767C371.229 161.368 370.692 160.848 370.259 160.207C369.825 159.548 369.609 158.673 369.609 157.581C369.609 156.627 369.799 155.804 370.181 155.111C370.579 154.417 371.091 153.845 371.715 153.395C372.356 152.927 373.084 152.58 373.899 152.355C374.713 152.129 375.545 152.017 376.395 152.017C377.365 152.017 378.301 152.164 379.203 152.459C380.121 152.753 380.945 153.239 381.673 153.915L379.281 156.437ZM392.598 155.449H386.956V152.485H401.516V155.449H395.874V170.893H392.598V155.449ZM410.965 152.485H413.799L421.729 170.893H417.985L416.269 166.681H408.287L406.623 170.893H402.957L410.965 152.485ZM415.125 163.873L412.291 156.385L409.405 163.873H415.125ZM428.798 155.449H423.156V152.485H437.716V155.449H432.074V170.893H428.798V155.449ZM443.598 152.485H455.792V155.449H446.874V159.973H455.324V162.937H446.874V167.929H456.26V170.893H443.598V152.485Z" fill="black"/>
<path fill-rule="evenodd" clip-rule="evenodd" d="M0 62.2467V124.343H14.8773H29.7546V105.218V86.0918L36.7354 79.1978L43.716 72.3038L63.2804 98.3236L82.8447 124.343H99.638C108.875 124.343 116.431 124.024 116.431 123.633C116.431 123.242 104.449 107.212 89.8047 88.0117L63.1769 53.1017L88.7568 26.9487L114.337 0.796909L97.5952 0.39975L80.855 0.00259087L55.3553 26.2734L29.8556 52.5441L29.8051 26.3471L29.7546 0.150068H14.8773H0V62.2467ZM159.123 62.1717V124.343H172.706H186.29V104.938V85.533L196.963 85.542L207.636 85.5524L220.301 104.947L232.965 124.343H248.438C256.948 124.343 263.911 124.039 263.911 123.668C263.911 123.297 257.508 113.414 249.683 101.708L235.455 80.4216L239.411 78.3763C246.004 74.9675 253.569 67.3102 257.182 60.3877C260.177 54.6502 260.603 52.3138 260.608 41.5478C260.612 31.8064 260.05 28.0276 257.899 23.3212C254.279 15.4051 246.97 8.32225 238.148 4.18635C230.975 0.821487 230.661 0.794323 195.022 0.398457L159.123 0V62.1717ZM310.483 62.2467V124.343H357.703H404.922V112.053V99.7634H371.286H337.651V86.8266V73.8898H366.758H395.866V61.5999V49.3099H366.758H337.651V37.02V24.73H370.639H403.628V12.44V0.150068H357.056H310.483V62.2467ZM446.32 13.0869V26.0237H465.725H485.13V75.1835V124.343H499.361H513.591V75.1835V26.0237H532.996H552.401V13.0869V0.150068H499.361H446.32V13.0869ZM596.387 12.418V24.6847L628.037 25.0314L659.688 25.3768L626.743 64.6866L593.799 103.995V114.17V124.343H644.9H696V112.075V99.8074L663.044 99.462L630.086 99.1166L663.044 59.8482L696 20.5799V10.365V0.150068H646.193H596.387V12.418ZM224.698 27.708C230.631 30.8452 232.862 34.7237 232.862 41.8997C232.862 56.3682 227.373 59.6594 203.236 59.6594H186.29V43.0576C186.29 33.9255 186.727 26.0081 187.26 25.4609C187.793 24.915 195.507 24.7054 204.401 24.9978C216.265 25.3859 221.672 26.1078 224.698 27.708Z" fill="black"/>
</svg>
