<svg width="869" height="111" viewBox="0 0 869 111" fill="none" xmlns="http://www.w3.org/2000/svg">
<path fill-rule="evenodd" clip-rule="evenodd" d="M46.5203 0.238398C46.5203 0.369736 46.3387 0.546168 46.1168 0.630798C45.6704 0.801213 40.3278 3.91956 39.1369 4.70504L38.3825 5.20264L38.3809 55.3968L38.3793 105.591L38.9026 106.061C39.3732 106.485 42.224 108.215 42.4505 108.215C42.5012 108.215 42.9929 108.516 43.543 108.884C44.0931 109.252 44.988 109.783 45.5318 110.063C46.0756 110.344 46.5203 110.667 46.5203 110.782C46.5203 111.212 47.929 110.967 48.778 110.388C49.2634 110.058 49.8698 109.694 50.1257 109.58C50.3815 109.466 50.8002 109.242 51.0561 109.082C51.3119 108.923 51.94 108.532 52.4517 108.212C52.9634 107.893 53.8887 107.373 54.5077 107.056C55.1268 106.74 55.8856 106.187 56.194 105.827L56.7548 105.174V66.4532C56.7548 31.014 56.7867 27.7208 57.1307 27.5895C57.6008 27.4101 58.9115 28.0711 63.6166 30.8609C65.6635 32.0744 68.3849 33.6609 69.6642 34.386C70.9435 35.1114 72.0426 35.7703 72.1065 35.8506C72.1705 35.9308 72.9741 36.4034 73.8925 36.901C74.8108 37.3987 75.8314 38.0394 76.1603 38.3245L76.7586 38.8434V52.0359V65.2284L76.1971 65.7459C75.8882 66.0303 75.3388 66.4153 74.9759 66.6014C74.613 66.7873 73.0602 67.6796 71.525 68.5842C69.9899 69.4888 67.9488 70.6865 66.9893 71.2459C65.5848 72.0649 65.1906 72.4205 64.9671 73.0703C64.5828 74.188 64.5474 97.2561 64.9282 98.5195C65.1127 99.1311 65.3906 99.48 65.8419 99.6659C66.525 99.9471 67.3084 99.6227 69.9503 97.9648C70.4916 97.6251 70.9775 97.3472 71.0303 97.3472C71.0831 97.3472 74.3563 95.4423 78.3037 93.1138C82.2512 90.7856 85.6381 88.8075 85.83 88.718C86.0219 88.6287 86.4929 88.3542 86.8767 88.1085C87.2605 87.8627 88.4491 87.1616 89.5179 86.5502C90.587 85.9391 91.6481 85.3312 91.8761 85.1994C93.471 84.2774 94.3053 83.5072 94.6998 82.5922C95.1153 81.6292 95.1341 80.4495 95.1341 55.4948C95.1341 30.5402 95.1153 29.3605 94.6998 28.3974C94.3042 27.4799 93.4245 26.6704 91.8665 25.7903C91.6332 25.6585 90.8338 25.1889 90.0899 24.7468C89.346 24.3047 88.4759 23.8105 88.1561 23.6487C87.8362 23.4868 87.2605 23.1474 86.8767 22.8944C86.4929 22.6412 86.0219 22.3609 85.83 22.2717C85.5104 22.1225 71.5139 13.9297 70.7109 13.4217C69.9164 12.9187 67.7629 11.6673 67.2219 11.394C66.3261 10.9415 64.6535 9.95091 63.5468 9.21792C62.9967 8.8535 62.501 8.55545 62.4452 8.55545C62.3894 8.55545 60.4043 7.41087 58.0341 6.01194C55.6639 4.61301 53.6789 3.46843 53.6231 3.46843C53.5672 3.46843 53.0716 3.1824 52.5215 2.83255C51.0449 1.89376 50.7104 1.69952 49.382 1.00769C48.7173 0.661538 48.2262 0.293196 48.2909 0.189143C48.3558 0.0850905 47.9836 0 47.4645 0C46.9453 0 46.5203 0.107291 46.5203 0.238398ZM15.5508 18.4573C15.2126 18.6705 13.9566 19.4174 12.7596 20.1169C11.5626 20.8163 10.4061 21.4927 10.1894 21.6199C9.97257 21.747 9.34454 22.0971 8.79374 22.3975C8.24294 22.6981 7.2688 23.2734 6.62915 23.6762C5.98949 24.0787 5.09979 24.6032 4.65203 24.8413C4.20428 25.0797 3.38784 25.5709 2.83774 25.933C2.28764 26.2951 1.75428 26.5913 1.65264 26.5913C1.55099 26.5913 1.27815 26.7994 1.04671 27.0537C0.815269 27.3081 0.484975 27.5162 0.31285 27.5162C0.0525683 27.5162 0 32.2143 0 55.5085C0 70.9372 0.089319 83.4459 0.198874 83.3787C0.308197 83.3114 0.640352 83.5135 0.937152 83.8275C1.23395 84.1415 1.55797 84.3984 1.65705 84.3984C1.75638 84.3984 2.28764 84.6962 2.83774 85.0604C3.38784 85.4246 4.36128 86.013 5.00094 86.368C6.76196 87.3454 6.98666 87.4737 8.45228 88.3378C9.19916 88.7783 10.0889 89.3196 10.4294 89.5407C10.7699 89.7617 11.2056 90.0151 11.3975 90.1035C11.5894 90.1918 13.8921 91.5253 16.5147 93.0669C19.1373 94.6085 21.4401 95.9462 21.632 96.0396C22.0211 96.2287 22.4751 96.5018 23.8417 97.3687C24.3534 97.6933 24.9291 98.0302 25.121 98.1172C25.3129 98.2041 25.8886 98.5364 26.4003 98.8557C27.3761 99.4645 28.2792 99.8907 28.5937 99.8907C28.6961 99.8907 29.0557 99.675 29.3927 99.4114L30.0056 98.9322V85.928V72.9234L29.366 72.3236C28.7982 71.7914 28.2176 71.4186 25.4699 69.8238C25.0861 69.6009 23.8824 68.8901 22.795 68.2441C21.7076 67.5978 20.3338 66.8109 19.7421 66.4953C19.1503 66.1799 18.6007 65.7521 18.5209 65.5452C18.4409 65.338 18.3755 54.9748 18.3755 42.5157C18.3755 21.9778 18.3399 19.7936 17.9941 19.1226C17.3777 17.9262 16.6901 17.7392 15.5508 18.4573ZM319.711 26.5103C318.335 26.7143 316.666 27.3645 315.414 28.184C313.927 29.157 312.233 30.8234 312.011 31.531C311.926 31.8027 311.782 32.0772 311.691 32.1408C311.494 32.2783 310.88 33.3905 310.51 34.2796C310.364 34.6295 310.151 34.9155 310.035 34.9155C309.92 34.9155 309.825 35.1028 309.825 35.3317C309.825 35.5606 309.726 35.8469 309.605 35.9676C309.484 36.0883 309.104 36.7075 308.761 37.3434C308.418 37.9793 307.689 39.332 307.141 40.3494C306.593 41.3668 305.878 42.6674 305.551 43.2397C305.225 43.812 304.686 44.8005 304.354 45.4364C304.022 46.0723 303.514 47.0087 303.224 47.5174C302.625 48.5714 301.742 50.1664 300.281 52.8357C299.725 53.8531 298.924 55.3098 298.502 56.0729C298.08 56.836 297.618 57.7463 297.477 58.0961C297.335 58.446 297.125 58.732 297.01 58.732C296.894 58.732 296.8 58.9274 296.8 59.1663C296.8 59.4049 296.643 59.7298 296.451 59.8882C296.259 60.0466 296.102 60.312 296.102 60.478C296.102 60.6441 295.971 60.9176 295.811 61.0857C295.651 61.2538 295.196 62.0157 294.798 62.7785C294.401 63.5416 293.74 64.7789 293.33 65.5283C292.415 67.1971 291.56 68.7613 290.62 70.4868C289.414 72.7003 287.901 75.4491 287.353 76.421C287.066 76.9297 286.411 78.1453 285.896 79.1224C284.669 81.4528 284.416 81.8956 284.049 82.3534C283.879 82.5643 283.775 83.0845 283.816 83.5095L283.89 84.2828L290.664 84.344L297.437 84.4053L298.007 83.6504C298.321 83.2351 298.81 82.4272 299.096 81.8549C299.583 80.8772 299.723 80.6095 300.279 79.6004C300.402 79.3777 300.819 78.5714 301.206 77.8084C301.594 77.0453 302.587 75.1724 303.413 73.6463C304.24 72.1202 305.185 70.3513 305.514 69.7154C305.843 69.0795 306.199 68.4032 306.304 68.2124C306.742 67.4195 307.053 66.8329 308.145 64.744C309.387 62.3651 311.551 58.2913 312.751 56.0729C313.163 55.3098 314.019 53.697 314.653 52.4889C315.287 51.2807 316.305 49.3557 316.915 48.2111C317.524 47.0665 318.44 45.3228 318.95 44.3362C319.461 43.3495 319.971 42.4848 320.085 42.4149C320.199 42.3449 320.293 42.0949 320.293 41.8593C320.293 41.6237 320.614 41.1619 321.007 40.8331C321.556 40.3739 321.82 40.2874 322.144 40.4599C322.615 40.7105 323.549 42.1698 323.549 42.6556C323.549 42.8286 323.637 43.0046 323.745 43.0471C323.934 43.1211 325.084 45.1531 326.733 48.3267C327.163 49.1534 327.6 49.9858 327.705 50.1766C327.81 50.3673 328.022 50.7637 328.175 51.0576C328.503 51.684 329.711 53.9248 330.91 56.1307C331.377 56.9893 332.24 58.628 332.829 59.7726C333.417 60.9171 333.959 61.9056 334.033 61.9692C334.106 62.0328 334.577 62.9173 335.08 63.9347C335.582 64.9521 336.051 65.8365 336.121 65.9001C336.192 65.9637 336.548 66.588 336.912 67.2875C337.277 67.9869 338.019 69.3917 338.561 70.4091C339.104 71.4265 339.899 72.9352 340.329 73.7619C340.759 74.5885 341.175 75.3169 341.254 75.3805C341.332 75.4441 341.68 76.0684 342.026 76.7678C342.372 77.4673 343.168 78.9761 343.795 80.1207C344.422 81.2652 345.05 82.4618 345.19 82.7798C345.33 83.0977 345.665 83.5921 345.935 83.8781C346.42 84.3935 346.486 84.3984 352.889 84.3984C359.15 84.3984 359.361 84.3836 359.606 83.9283C359.793 83.5824 359.782 83.2464 359.568 82.6565C359.407 82.2156 359.203 81.8549 359.113 81.8549C359.023 81.8549 358.832 81.5688 358.688 81.219C358.408 80.5385 357.636 79.094 356.381 76.9003C355.33 75.0623 354.336 73.2555 353.381 71.4496C352.944 70.6229 352.373 69.5824 352.112 69.1373C351.657 68.3606 351.268 67.6572 349.701 64.7819C347.485 60.715 346.991 59.8218 346.394 58.8079C346.032 58.194 345.501 57.2233 345.214 56.651C344.927 56.0787 344.596 55.4544 344.477 55.2636C343.949 54.4134 342.211 51.3339 341.607 50.1766C341.243 49.4771 340.615 48.3147 340.213 47.5937C339.811 46.8725 339.207 45.78 338.87 45.1658C338.534 44.5515 338.038 43.6848 337.768 43.2397C337.497 42.7946 337.213 42.2743 337.136 42.0836C337.058 41.8928 336.952 41.6327 336.899 41.5055C336.846 41.3783 336.602 40.9621 336.358 40.5806C336.113 40.1991 335.618 39.3146 335.258 38.6151C334.897 37.9157 334.548 37.2914 334.481 37.2278C334.415 37.1642 334.067 36.5399 333.708 35.8404C333.35 35.1409 332.932 34.3642 332.78 34.1145C331.095 31.3412 330.531 30.5874 329.361 29.5408C328.097 28.4101 327.259 27.9023 325.163 26.9978C324.307 26.6285 320.943 26.3279 319.711 26.5103ZM132.857 26.7922C132.688 26.8988 132.466 27.3527 132.365 27.8006C132.263 28.2487 132.156 37.5506 132.127 48.4715C132.097 59.3926 132.049 71.6057 132.02 75.6117C131.981 81.0661 132.041 83.0841 132.263 83.6469L132.559 84.3984H159.552H186.544L187.231 83.4547C187.61 82.9356 188.142 82.0773 188.414 81.5471C188.687 81.0169 189.415 79.6466 190.033 78.5021C192.531 73.8717 192.459 74.0433 192.172 73.4157L191.906 72.837H167.874C153.01 72.837 143.757 72.7533 143.62 72.6173C143.482 72.4802 143.443 64.1765 143.515 50.4772C143.579 38.4209 143.549 28.2198 143.447 27.808C143.345 27.3962 143.064 26.9538 142.823 26.8253C142.291 26.5423 133.301 26.5127 132.857 26.7922ZM210.511 27.0472C209.971 27.5842 210.029 23.8831 209.962 62.0354C209.928 81.2939 209.965 83.9792 210.272 84.172C210.487 84.307 221.176 84.3926 238.083 84.3949L265.544 84.3984L266.135 83.7625C266.46 83.4127 266.795 82.9705 266.88 82.7798C266.965 82.589 267.379 81.8086 267.8 81.0456C268.609 79.5791 270.616 75.8924 271.135 74.918C271.532 74.1725 271.53 73.4252 271.129 73.0946C270.897 72.9033 264.145 72.8344 246.066 72.839L221.321 72.8453V67.3494V61.8536L242.286 61.84C265.976 61.8247 263.882 62.0071 265.022 59.8595C265.385 59.1757 266.028 57.9921 266.451 57.229C266.875 56.466 267.66 54.9824 268.196 53.9319C268.732 52.8817 269.264 51.9651 269.378 51.8951C269.679 51.7105 269.632 50.778 269.306 50.454C269.093 50.2418 263.403 50.1766 245.116 50.1766H221.204V44.305C221.204 39.8118 221.272 38.4114 221.495 38.3398C221.655 38.2884 231.566 38.2542 243.519 38.2641L265.252 38.282L265.927 37.7175C266.298 37.4072 266.697 36.9357 266.814 36.6703C266.93 36.4046 267.123 36.0312 267.242 35.8404C267.361 35.6496 267.52 35.3375 267.595 35.1467C267.669 34.956 267.999 34.3316 268.328 33.7594C269.606 31.5349 271.446 27.9141 271.446 27.6235C271.446 27.4554 271.288 27.161 271.095 26.9691C270.786 26.6618 267.175 26.6176 240.864 26.5991C211.141 26.5786 210.98 26.5809 210.511 27.0472ZM374.825 27.0033L374.256 27.2998V32.6025C374.256 37.863 374.26 37.9074 374.78 38.1904C375.185 38.4114 381.116 38.4783 401.144 38.4875C422.692 38.4975 427.049 38.5523 427.37 38.8168C427.715 39.1019 427.755 40.0252 427.755 47.8567C427.755 56.0132 427.727 56.604 427.329 56.962C426.939 57.3132 424.779 57.3447 401.03 57.3447C383.639 57.3447 375.008 57.423 374.706 57.584C374.269 57.8164 374.256 58.2092 374.256 71.001V84.1787L374.887 84.4169C375.269 84.5612 377.381 84.6273 380.245 84.5845C384.141 84.5265 385.012 84.453 385.194 84.1672C385.32 83.969 385.417 80.7498 385.421 76.6522C385.425 72.7098 385.505 69.3764 385.599 69.2448C385.715 69.083 392.561 69.012 406.82 69.0252C428.793 69.0455 429.25 69.0275 431.592 68.0538C432.646 67.6156 434.645 66.2106 435.564 65.2628C436.641 64.1513 437.938 61.9993 438.495 60.3987C439.03 58.8641 439.036 58.7364 439.036 48.3267C439.036 36.6865 439.044 36.7635 437.45 33.5281C436.524 31.6473 433.723 28.7741 432.058 27.9965C429.337 26.7261 430.238 26.7638 401.749 26.7342C380.724 26.7124 375.279 26.7668 374.825 27.0033ZM471.396 26.9802C468.316 27.8922 466.096 30.6625 465.446 34.4066C465.351 34.9532 465.153 35.5204 465.006 35.6668C464.859 35.8131 464.739 36.1984 464.739 36.5225C464.74 36.8467 464.594 37.5804 464.416 38.1527C463.63 40.6682 463.375 41.5561 463.221 42.3148C463.13 42.7599 462.973 43.2282 462.87 43.3553C462.768 43.4825 462.618 44.0277 462.538 44.567C462.457 45.1062 462.238 45.9093 462.052 46.3516C461.867 46.7939 461.714 47.3983 461.714 47.695C461.714 47.9917 461.611 48.3374 461.484 48.4634C461.357 48.5894 461.153 49.1566 461.031 49.7236C460.657 51.459 460.281 52.7992 459.943 53.5951C459.766 54.0127 459.617 54.637 459.613 54.9824C459.608 55.3279 459.455 55.8706 459.272 56.1885C459.089 56.5065 458.936 57.0815 458.931 57.4665C458.927 57.8517 458.782 58.372 458.609 58.6226C458.436 58.8735 458.222 59.5372 458.135 60.0974C458.047 60.6575 457.902 61.2298 457.811 61.3692C457.72 61.5084 457.524 62.1426 457.376 62.7785C456.934 64.6774 456.57 65.9875 456.349 66.4782C456.235 66.7325 456.098 67.2008 456.045 67.5187C455.943 68.1361 455.345 70.191 454.935 71.334C454.798 71.7155 454.612 72.4439 454.522 72.9526C454.431 73.4613 454.233 74.1048 454.081 74.3825C453.93 74.6604 453.805 75.1287 453.805 75.423C453.804 75.7176 453.647 76.2566 453.456 76.6208C453.264 76.9852 453.108 77.6155 453.108 78.0218C453.108 78.4281 452.954 78.9624 452.767 79.2094C452.579 79.4561 452.422 79.9477 452.418 80.3015C452.414 80.6553 452.253 81.3184 452.061 81.7749C451.87 82.2316 451.714 82.8785 451.716 83.2126C451.724 84.5138 451.725 84.514 457.266 84.5135L462.371 84.5133L462.915 83.8268C463.428 83.1786 463.967 81.6877 464.839 78.5021C465.048 77.739 465.373 76.6464 465.561 76.0742C465.75 75.5019 465.903 74.8634 465.902 74.6553C465.902 74.4475 466.058 73.9792 466.249 73.6148C466.44 73.2506 466.6 72.6924 466.606 72.3745C466.611 72.0566 466.765 71.5363 466.948 71.2184C467.131 70.9004 467.288 70.3281 467.297 69.9466C467.306 69.5651 467.463 68.9928 467.646 68.6748C467.829 68.3569 467.983 67.8366 467.988 67.5187C467.993 67.2008 468.154 66.6426 468.345 66.2784C468.536 65.914 468.692 65.3625 468.692 65.0529C468.692 64.7433 468.835 64.2089 469.009 63.8653C469.183 63.5219 469.394 62.7943 469.479 62.2481C469.563 61.7022 469.722 61.0778 469.832 60.8607C470.018 60.4963 470.171 59.9654 470.813 57.4603C470.944 56.9516 471.146 56.3578 471.262 56.1409C471.379 55.9237 471.546 55.3057 471.633 54.7672C471.719 54.2286 471.93 53.5217 472.101 53.1962C472.272 52.8708 472.412 52.3635 472.413 52.0689C472.413 51.7746 472.522 51.3339 472.653 51.0897C472.785 50.8455 472.984 50.202 473.096 49.6596C473.256 48.8866 473.691 47.5232 473.948 46.99C474.025 46.8309 474.918 46.7641 475.121 46.9021C475.493 47.1549 476.368 48.7009 476.368 49.1055C476.368 49.3132 476.473 49.4829 476.601 49.4829C476.729 49.4829 476.834 49.6034 476.834 49.7509C476.834 49.9958 478.237 53.0586 478.723 53.8762C478.837 54.067 478.995 54.3791 479.075 54.5699C479.155 54.7607 479.771 56.0613 480.444 57.4603C481.116 58.8592 482.259 61.2524 482.983 62.7785C483.707 64.3046 484.399 65.7093 484.522 65.9001C484.645 66.0909 484.808 66.403 484.885 66.5938C485.26 67.5206 487.91 73.0698 490.407 78.1552C492.08 81.5644 494.113 83.0931 496.993 83.1063C498.556 83.1132 498.743 83.0575 499.974 82.2142C501.113 81.4345 502.652 79.6871 502.652 79.174C502.652 79.0071 504.836 74.4384 505.24 73.7619C505.354 73.5711 505.509 73.259 505.586 73.0682C505.721 72.7341 506.309 71.491 508.924 66.0157C509.592 64.6168 510.457 62.7959 510.846 61.9692C511.235 61.1426 511.645 60.3102 511.756 60.1194C511.868 59.9286 512.022 59.6165 512.099 59.4257C512.176 59.2349 512.685 58.1424 513.231 56.9978C513.776 55.8532 514.768 53.7722 515.434 52.3732C518.01 46.9704 518.288 46.5666 519.089 47.0691C519.507 47.3309 520.227 49.2863 520.427 50.7003C520.494 51.179 520.649 51.7547 520.77 51.9797C520.891 52.2047 521.056 52.8265 521.136 53.3615C521.217 53.8964 521.434 54.6959 521.62 55.1383C521.806 55.5806 521.958 56.1931 521.958 56.4997C521.958 56.8061 522.115 57.4304 522.307 57.8871C522.499 58.3435 522.656 58.9688 522.656 59.2763C522.656 59.5836 522.812 60.1333 523.004 60.4977C523.195 60.8619 523.352 61.4335 523.352 61.7676C523.353 62.1017 523.511 62.7487 523.703 63.2054C523.895 63.6618 524.055 64.377 524.059 64.7944C524.063 65.2117 524.22 65.7554 524.408 66.0021C524.596 66.249 524.749 66.7552 524.749 67.1272C524.749 67.4991 524.899 68.2857 525.081 68.8751C525.748 71.0301 526.14 72.5065 526.233 73.2097C526.284 73.6056 526.431 74.1258 526.558 74.3659C526.685 74.6059 526.865 75.2706 526.959 75.8429C527.053 76.4152 527.214 77.043 527.316 77.2382C527.419 77.4331 527.569 78.0304 527.649 78.5654C527.729 79.1003 527.947 79.8998 528.133 80.3422C528.319 80.7845 528.471 81.3758 528.471 81.656C528.471 82.5816 529.255 83.9089 530.018 84.2765C530.968 84.7344 539.605 84.7993 540.055 84.3521C540.444 83.9655 540.403 82.0769 539.985 81.0812C539.793 80.6247 539.636 79.9995 539.636 79.692C539.636 79.3847 539.48 78.835 539.289 78.4706C539.098 78.1064 538.937 77.4962 538.931 77.1147C538.926 76.7332 538.772 76.1609 538.589 75.8429C538.406 75.525 538.253 74.9809 538.248 74.6336C538.244 74.2865 538.098 73.6102 537.924 73.1306C537.609 72.264 537.35 71.3388 536.742 68.9061C536.567 68.2066 536.249 67.01 536.035 66.2469C535.561 64.553 535.043 62.5207 534.64 60.7749C534.474 60.0544 534.254 59.33 534.151 59.1649C534.049 58.9995 533.887 58.4446 533.792 57.9313C533.575 56.7629 533.159 55.1304 532.847 54.2231C532.716 53.8415 532.521 53.1132 532.416 52.6045C532.147 51.3131 531.728 49.7648 531.35 48.666C531.174 48.1529 531.029 47.4765 531.028 47.163C531.027 46.8492 530.87 46.2945 530.679 45.9303C530.488 45.5659 530.332 45.0264 530.332 44.7314C530.332 44.4361 530.216 43.9017 530.074 43.5438C529.837 42.947 529.686 42.3754 528.864 38.962C528.711 38.3261 528.517 37.7011 528.433 37.5728C528.349 37.4447 528.211 36.9244 528.125 36.4166C528.039 35.9091 527.82 35.1012 527.638 34.6218C527.457 34.1423 527.308 33.5381 527.308 33.2793C527.308 32.5641 525.978 30.0424 525.142 29.1729C523.415 27.3765 520.813 26.5591 518.426 27.063C515.803 27.6161 514.106 29.1815 512.544 32.4876C511.45 34.802 509.958 37.9057 507.654 42.6616C506.668 44.6965 505.57 46.9856 505.214 47.7487C504.857 48.5117 503.916 50.4887 503.122 52.142C502.328 53.7953 501.31 55.9284 500.859 56.8822C500.407 57.836 499.946 58.7725 499.832 58.9633C499.719 59.154 499.56 59.4662 499.481 59.6569C498.592 61.7863 497.566 63.6172 497.131 63.8484C496.675 64.0907 496.523 64.0549 496.022 63.5871C495.703 63.2888 495.442 62.939 495.442 62.8097C495.442 62.585 493.537 58.5276 493.094 57.8071C492.976 57.6163 492.817 57.3042 492.74 57.1134C492.663 56.9227 492.15 55.8301 491.599 54.6855C491.048 53.5409 490.056 51.4599 489.394 50.061C488.732 48.662 487.74 46.581 487.189 45.4364C486.638 44.2918 486.125 43.1993 486.048 43.0085C485.971 42.8177 485.816 42.5056 485.704 42.3148C485.486 41.9451 483.956 38.7701 482.53 35.7248C482.053 34.7074 481.57 33.7189 481.456 33.5281C481.343 33.3374 481.186 33.0252 481.107 32.8344C479.579 29.1237 476.859 26.8364 473.814 26.7013C473.108 26.6701 472.02 26.7954 471.396 26.9802ZM583.774 26.7127C583.741 26.739 582.72 26.8276 581.504 26.9092C578.021 27.1434 576.607 27.2822 575.108 27.5365C570.606 28.3003 566.666 29.5949 563.95 31.2024C562.327 32.163 559.062 35.27 558.105 36.7653C557.241 38.1145 555.919 40.7323 555.918 41.093C555.918 41.2477 555.772 41.7159 555.594 42.1335C555.113 43.2603 554.576 45.2822 554.41 46.5925C554.329 47.2284 554.153 48.2169 554.018 48.7892C553.617 50.4841 553.723 61.5114 554.159 63.545C554.359 64.4755 554.522 65.6333 554.522 66.1182C554.522 66.603 554.679 67.3732 554.871 67.8299C555.063 68.2864 555.224 68.9496 555.228 69.3033C555.232 69.6571 555.389 70.1487 555.577 70.3954C555.764 70.6424 555.918 71.0167 555.918 71.2276C555.918 71.7352 557.427 74.5615 558.321 75.7273C559.052 76.6811 560.712 78.331 561.882 79.2651C564.316 81.2104 570.756 83.3851 575.411 83.8339C576.217 83.9116 577.16 84.0548 577.504 84.1521C579.282 84.653 600.712 84.5961 603.02 84.0841C603.276 84.0275 604.061 83.9098 604.764 83.8229C609.909 83.1867 614.95 81.4257 618.026 79.1904C619.352 78.2267 621.486 76.0106 622.255 74.7983C623.229 73.2645 624.303 71.1756 624.303 70.816C624.303 70.6306 624.449 70.151 624.628 69.7503C625.078 68.7433 625.435 67.3208 625.884 64.744C626.647 60.3694 626.347 47.2416 625.419 44.3959C625.274 43.9507 625.078 43.2224 624.985 42.7773C624.574 40.8292 623.172 37.8452 621.833 36.0691C619.367 32.7977 617.096 31.1645 612.392 29.2807C611.41 28.8874 608.944 28.2205 607.905 28.0672C607.521 28.0105 606.736 27.8646 606.16 27.7426C604.679 27.4285 603.997 27.3421 601.624 27.1659C600.473 27.0803 599.165 26.9654 598.717 26.9106C597.892 26.8095 583.885 26.6239 583.774 26.7127ZM636.767 26.9427C635.838 27.4031 635.707 28.1067 635.704 32.6726C635.7 37.7742 635.838 38.2826 637.264 38.4168C637.747 38.4623 644.083 38.4949 651.343 38.4894L664.543 38.479V61.1613C664.543 78.4947 664.609 83.9089 664.822 84.1209C665.198 84.4944 675.374 84.5177 675.605 84.1456C675.691 84.0064 675.828 73.6793 675.91 61.1962L676.057 38.4995L688.767 38.4937C699.312 38.4891 701.583 38.432 702.097 38.1587C702.479 37.9555 703.129 37.0759 703.795 35.8612C707.921 28.3364 708.132 27.8882 707.815 27.3007C707.674 27.0378 707.431 26.8109 707.276 26.7968C707.12 26.783 691.299 26.7568 672.118 26.739C648.82 26.7175 637.085 26.7853 636.767 26.9427ZM743.8 26.7175C743.769 26.7423 742.899 26.8274 741.865 26.9071C740.832 26.9867 739.523 27.1025 738.958 27.1645C738.392 27.2265 737.458 27.3266 736.882 27.3869C735.531 27.5284 732.698 28.0869 731.067 28.5324C724.596 30.3013 720.348 33.6005 717.374 39.168C716.973 39.9172 716.646 40.6819 716.646 40.8673C716.646 41.0528 716.504 41.5323 716.33 41.933C715.86 43.0145 715.295 45.0646 715.142 46.2457C715.067 46.818 714.88 47.8065 714.725 48.4424C714.349 49.987 714.359 61.3701 714.738 63.1254C714.889 63.8248 715.076 65.0735 715.155 65.9001C715.233 66.7267 715.387 67.5122 715.496 67.6459C715.606 67.7793 715.769 68.3453 715.858 68.9038C715.948 69.4624 716.162 70.1855 716.332 70.511C716.503 70.8364 716.644 71.2382 716.644 71.4038C716.647 71.98 718.271 74.8218 719.379 76.1893C722.109 79.5576 725.981 81.6641 732.347 83.2441C732.986 83.4027 734.033 83.5814 734.673 83.6411C735.312 83.7008 736.542 83.8795 737.405 84.0381C740.778 84.6585 761.076 84.6728 763.864 84.0568C764.184 83.9861 765.074 83.8686 765.841 83.7958C766.609 83.723 767.708 83.523 768.283 83.3514C768.859 83.1798 769.697 82.989 770.144 82.9273C771.634 82.7222 775.589 81.1425 777.671 79.9209C779.111 79.076 781.637 76.6735 782.615 75.2195C783.705 73.5965 785.031 71.0812 785.031 70.6341C785.031 70.4553 785.178 69.9674 785.358 69.5498C785.866 68.3708 786.355 66.253 786.759 63.4722C787.254 60.0706 787.263 51.5424 786.775 48.7892C786.584 47.7082 786.427 46.4462 786.427 45.9849C786.427 45.5235 786.269 44.7725 786.078 44.3159C785.886 43.8594 785.725 43.1962 785.721 42.8425C785.717 42.4887 785.56 41.9971 785.372 41.7504C785.185 41.5034 785.031 41.1217 785.031 40.902C785.031 40.6823 784.879 40.2078 784.694 39.8478C784.508 39.4878 784.295 39.0371 784.219 38.8464C783.427 36.8444 780.497 33.4271 778.298 31.9391C777.124 31.1453 773.699 29.366 773.345 29.366C773.264 29.366 772.904 29.2546 772.544 29.1186C772.183 28.9824 771.864 28.8737 771.834 28.8772C771.803 28.8804 771.28 28.7294 770.671 28.5415C770.061 28.3535 769.144 28.1417 768.632 28.0711C768.121 28.0006 767.336 27.8528 766.888 27.7428C765.871 27.4931 764.755 27.3534 762.236 27.1603C761.148 27.0771 759.84 26.9582 759.328 26.8963C758.447 26.7897 743.919 26.6225 743.8 26.7175ZM804.632 26.792C803.988 27.2098 803.872 28.1123 803.872 32.7036C803.872 37.1508 803.902 37.4891 804.337 37.9215C804.796 38.3784 805.112 38.3839 830.964 38.3839H857.127L857.49 38.9352C857.805 39.4124 857.844 40.5138 857.786 47.1327C857.734 53.0262 857.65 54.8474 857.416 55.0789C857.172 55.3214 852.057 55.3818 830.813 55.3922C805.325 55.4049 804.503 55.4188 804.192 55.8412C803.929 56.1996 803.872 58.6675 803.872 69.7445C803.872 77.9355 803.96 83.4446 804.098 83.8053L804.325 84.3984H809.42C813.873 84.3984 814.554 84.3503 814.834 84.0164C815.086 83.7144 815.177 81.9083 815.269 75.4031L815.385 67.1719L828.295 67.1152C835.395 67.084 841.434 67.1106 841.715 67.1744C841.997 67.2382 842.363 67.546 842.529 67.8586C842.844 68.4501 845.449 72.2878 845.856 72.7602C845.984 72.9086 846.56 73.7147 847.135 74.5515C847.711 75.3883 848.549 76.5937 848.996 77.2303C849.444 77.8666 850.281 79.0651 850.857 79.8933C851.433 80.7216 852.377 82.0479 852.956 82.8411L854.008 84.2828L860.748 84.3498C864.455 84.3866 867.828 84.3558 868.244 84.2814C868.928 84.1591 869 84.0684 869 83.3338C869 82.8868 868.912 82.5754 868.804 82.6415C868.599 82.7673 868.353 82.4679 866.631 80.005C866.054 79.1784 865.139 77.8777 864.599 77.1147C863.589 75.6875 861.71 72.9681 861.092 72.039C860.364 70.9453 858.836 68.7507 858.305 68.0364C858.001 67.6276 857.797 67.2498 857.852 67.1968C857.907 67.1437 858.335 67.0405 858.803 66.9672C862.178 66.4398 865.985 63.739 867.395 60.8723C867.66 60.3324 867.973 59.832 868.09 59.7603C868.207 59.6884 868.302 59.3758 868.302 59.0652C868.302 58.7177 868.436 58.5008 868.651 58.5008C868.957 58.5008 869 57.1005 869 47.2862C869 37.472 868.957 36.0716 868.651 36.0716C868.459 36.0716 868.302 35.8719 868.302 35.6277C868.302 34.6445 866.558 31.781 865.052 30.2909C863.335 28.5926 861.78 27.6764 859.584 27.0713C858.176 26.6833 856.343 26.6558 831.468 26.6509C816.832 26.6479 804.756 26.7115 804.632 26.792ZM596.391 38.0396C600.554 38.2433 602.47 38.473 605.23 39.0984C607.586 39.6323 610.623 41.0879 611.953 42.3208C613.113 43.3953 614.531 45.4803 614.541 46.1248C614.545 46.3821 614.702 46.7946 614.89 47.0414C615.078 47.2883 615.233 47.8086 615.234 48.1975C615.236 48.5867 615.384 49.4526 615.563 50.1222C615.971 51.6465 616.053 58.7776 615.683 60.5819C615.539 61.2813 615.374 62.2698 615.315 62.7785C615.115 64.5169 613.902 67.1032 612.673 68.4087C610.61 70.6005 607.012 72.2129 603.02 72.7345C602.38 72.8182 601.805 72.917 601.741 72.9542C600.75 73.5311 582.239 73.5251 579.295 72.947C579.039 72.8968 578.218 72.7932 577.47 72.7169C575.651 72.5313 572.493 71.6031 570.815 70.761C568.709 69.7043 566.832 67.8359 565.835 65.803C565.37 64.8547 564.99 63.8308 564.99 63.5277C564.99 63.2246 564.829 62.5077 564.633 61.9345C564.341 61.085 564.289 59.8713 564.349 55.3612C564.422 49.8718 564.655 47.8067 565.359 46.4004C565.54 46.0403 565.687 45.6429 565.687 45.5171C565.687 45.2294 566.846 43.5519 567.601 42.7481C569.374 40.8576 572.412 39.4293 576.154 38.7264C578.638 38.26 579.71 38.1652 584.296 38.0068C586.534 37.9296 588.4 37.8361 588.442 37.7994C588.526 37.7249 592.294 37.8389 596.391 38.0396ZM757.584 38.2574C759.407 38.3488 762.793 38.6575 762.95 38.7467C763.023 38.7881 763.598 38.8873 764.229 38.9673C768.925 39.5618 773.292 42.1462 774.774 45.2068C775.081 45.8417 775.474 46.6374 775.646 46.975C775.818 47.3126 775.963 47.8849 775.968 48.2468C775.972 48.6086 776.124 49.5217 776.305 50.2755C776.763 52.1832 776.759 59.4801 776.299 60.9872C776.115 61.5909 775.963 62.4333 775.962 62.8592C775.958 64.0706 774.674 66.7982 773.527 68.0306C771.622 70.0766 769.563 71.1721 766.026 72.0205C762.204 72.9375 759.245 73.1681 751.187 73.1773C743.461 73.1859 740.372 72.9699 736.237 72.1312C732.475 71.3684 729.268 69.6647 727.667 67.5784C726.784 66.4273 725.717 64.3 725.717 63.6903C725.717 63.4116 725.56 62.7411 725.368 62.2005C725.095 61.4302 725.02 60.0033 725.02 55.6104C725.02 51.2176 725.095 49.7907 725.368 49.0204C725.56 48.4798 725.717 47.7804 725.717 47.4664C725.717 47.1521 725.862 46.6189 726.038 46.2813C726.214 45.9437 726.502 45.3615 726.678 44.9871C727.231 43.8065 729.364 41.7252 730.801 40.964C733.987 39.2755 737.886 38.4649 743.892 38.241C745.986 38.1631 747.732 38.0688 747.774 38.0311C747.849 37.9645 755.049 38.1305 757.584 38.2574Z" fill="black"/>
</svg>
