<svg width="400" height="80" viewBox="0 0 400 80" fill="none" xmlns="http://www.w3.org/2000/svg">
<mask id="mask0_11293_1783" style="mask-type:luminance" maskUnits="userSpaceOnUse" x="0" y="0" width="400" height="79">
<path d="M399.671 0H0V78.7788H399.671V0Z" fill="white"/>
</mask>
<g mask="url(#mask0_11293_1783)">
<path d="M36.87 70.8448C36.87 69.9348 36.8229 69.048 36.87 68.138C37.0112 65.4778 39.1759 63.2843 41.8582 63.1443C43.5288 63.051 45.2229 63.0976 46.917 63.0743C50.2582 63.051 52.7523 60.5308 52.7523 57.1939C52.7523 55.7238 52.7288 54.2537 52.7523 52.7602C52.8465 49.5167 55.0582 47.3932 58.3288 47.3232C59.8817 47.2999 61.4347 47.3232 62.9876 47.2765C66.07 47.2065 68.517 44.8264 68.5876 41.7695C68.6112 40.1594 68.6112 38.5726 68.5641 36.9625C68.47 33.7656 66.0935 31.4554 62.8229 31.4088C61.27 31.4088 59.717 31.4088 58.1641 31.3854C55.0347 31.3154 52.8465 29.1219 52.7523 25.9951C52.7053 24.455 52.7523 22.9148 52.7288 21.3747C52.6817 18.1311 50.1876 15.6576 46.9406 15.6343C45.4582 15.6343 43.9759 15.6343 42.47 15.6343C39.1523 15.5876 36.87 13.3474 36.8229 10.0572C36.8229 8.51711 36.8229 6.977 36.8465 5.43689C36.8935 2.35668 39.1288 0.0931841 42.2112 -0.000155792C43.7641 -0.0468256 45.317 -0.0468256 46.87 -0.0234907C50.2582 0.0231792 52.5406 2.35668 52.5641 5.74025C52.5641 7.14035 52.5641 8.56378 52.5641 9.96388C52.6582 13.3941 55.0347 15.7276 58.47 15.7276C59.9523 15.7276 61.4582 15.7276 62.9406 15.7276C65.9994 15.7743 68.3288 18.0611 68.3994 21.0713C68.4465 22.6814 68.3994 24.2916 68.4465 25.8784C68.517 29.0519 70.9406 31.4088 74.1641 31.4788C75.717 31.5021 80.8462 31.4554 82.3756 31.4788C85.5992 31.5488 87.8582 33.7889 87.9053 36.9625C87.9288 38.5726 87.9523 40.1827 87.9053 41.7695C87.8347 44.7564 85.6227 46.9732 82.6344 47.0899C81.0109 47.1599 75.8347 47.0899 74.2112 47.1365C70.8935 47.1832 68.4935 49.5867 68.4465 52.8536C68.4465 54.3937 68.4465 55.9338 68.4229 57.4739C68.3523 60.5075 66.07 62.7943 62.9876 62.8643C61.3641 62.9109 59.7406 62.8643 58.1406 62.9109C54.9406 63.0043 52.5876 65.4078 52.5641 68.628C52.5641 70.0981 52.5641 71.5916 52.5406 73.0617C52.4935 76.3519 50.2347 78.592 46.8935 78.6387C45.5994 78.6387 44.3053 78.6387 43.0112 78.6387C38.9641 78.6387 36.7288 76.4219 36.8229 72.4549C36.8229 71.8716 36.8229 71.3115 36.8229 70.7282C36.8229 70.7282 36.8229 70.7282 36.8465 70.7282L36.87 70.8448Z" fill="#4766FF"/>
<path d="M20.9647 23.6843C20.9647 22.6577 20.8941 21.6309 20.9647 20.6042C21.2 17.944 23.5294 15.8672 26.3764 15.7972C28 15.7505 29.6 15.7739 31.2235 15.7972C34.2117 15.8905 36.4706 18.0607 36.6117 21.0242C36.6823 22.5643 36.6353 24.1044 36.6353 25.6445C36.6353 29.028 39.0588 31.5015 42.4235 31.5482C43.8353 31.5482 45.2706 31.5482 46.6823 31.5482C50.2117 31.5482 52.5411 33.8817 52.5176 37.3353C52.5176 38.8754 52.5176 40.4155 52.4706 41.9556C52.3764 44.8491 50.2117 47.0426 47.2941 47.1826C45.6235 47.2526 43.9294 47.1826 42.2588 47.2293C39.1294 47.276 36.6353 49.7961 36.6117 52.8997C36.6117 54.4398 36.6588 55.9799 36.6117 57.52C36.5411 60.6702 34.2353 62.9571 31.0588 63.0037C29.4353 63.0271 27.8353 63.0504 26.2117 63.0037C23.2235 62.8871 21.0117 60.6702 20.9176 57.6834C20.8706 56.0732 20.8706 54.4865 20.9176 52.8764C20.9647 49.6095 23.2941 47.3926 26.6117 47.346C28.0941 47.346 29.5764 47.346 31.0823 47.346C34.2823 47.2993 36.7294 44.9191 36.8 41.7456C36.847 40.2055 36.847 38.6654 36.8 37.1253C36.6823 33.835 34.2353 31.5015 30.9411 31.4782C29.5764 31.4782 28.2353 31.4782 26.8706 31.4782C23.1529 31.4782 20.9647 29.3081 20.9647 25.6445C20.9647 24.9911 20.9647 24.361 20.9647 23.7077V23.6843Z" fill="#4766FF"/>
<path d="M0.000713644 39.342C0.000713644 38.572 0.000713644 37.8019 0.000713644 37.0319C0.0477725 33.9516 2.25954 31.6882 5.36541 31.5948C6.98894 31.5481 13.6242 31.5481 15.2478 31.5948C18.4242 31.6648 20.7066 33.9283 20.8007 37.1019C20.8478 38.6886 20.8242 40.2988 20.8007 41.8855C20.7301 44.8957 18.3772 47.1826 15.3419 47.2526C13.9772 47.2759 7.60071 47.2526 6.236 47.2526C2.23601 47.2759 -0.0463452 45.0124 0.000713644 41.0688C0.000713644 40.4854 0.000713644 39.9254 0.000713644 39.342Z" fill="#4766FF"/>
<path d="M137.978 8.81958H95.8132V18.0836H111.837V62.4434H121.837V18.0836H137.978V8.81958Z" fill="white"/>
<path d="M148.144 22.8435C142.309 22.8435 137.697 24.6869 134.332 28.3738C130.967 32.0607 129.297 37.0777 129.297 43.4248C129.297 49.772 131.038 54.9523 134.544 58.6392C138.05 62.3262 142.873 64.1696 149.062 64.1696C153.626 64.1696 157.532 63.0029 160.756 60.646C163.979 58.2892 166.05 55.069 166.991 50.962L157.226 49.4919C156.85 51.3587 155.909 52.8055 154.45 53.8789C152.991 54.9523 151.179 55.489 149.038 55.489C146.167 55.489 143.909 54.6956 142.262 53.1089C140.615 51.5221 139.673 49.2352 139.462 46.225H166.991V42.9348C166.991 36.9144 165.297 32.0607 161.956 28.3738C158.591 24.6869 153.979 22.8435 148.144 22.8435ZM139.626 39.4812C139.956 36.9144 140.85 34.9309 142.309 33.5308C143.767 32.1307 145.72 31.4307 148.144 31.4307C150.567 31.4307 152.685 32.1774 154.356 33.6942C156.003 35.1876 156.826 37.1244 156.826 39.4812H139.626Z" fill="white"/>
<path d="M195.368 53.2738C193.792 54.7439 191.886 55.4906 189.627 55.4906C186.756 55.4906 184.521 54.4639 182.921 52.3637C181.321 50.2869 180.521 47.3 180.521 43.4264C180.521 39.5528 181.321 36.6593 182.921 34.5591C184.521 32.4823 186.756 31.4323 189.627 31.4323C191.768 31.4323 193.58 32.109 195.039 33.4391C196.498 34.7691 197.556 36.6826 198.215 39.1328L207.815 37.7327C206.38 32.9724 204.027 29.3088 200.78 26.6953C197.533 24.1051 193.815 22.7983 189.627 22.7983C183.792 22.7983 179.133 24.5951 175.651 28.212C172.168 31.8289 170.451 36.8693 170.451 43.3797C170.451 49.8902 172.192 55.0472 175.651 58.6641C179.133 62.3044 183.792 64.1245 189.627 64.1245C194.309 64.1245 198.333 62.7478 201.698 59.9942C205.062 57.2407 207.204 53.3671 208.145 48.3968L198.38 46.9967C197.933 49.6802 196.921 51.757 195.368 53.2271V53.2738Z" fill="white"/>
<path d="M232.895 23.0072C228.919 23.0072 225.695 24.5707 223.225 27.721C221.531 29.8678 220.472 32.3179 219.931 35.0481L218.354 34.4881L220.919 24.7341V8.81958H210.919V62.4434H220.919V39.0851C220.919 36.8449 221.625 35.0248 223.06 33.6247C224.495 32.2246 226.307 31.5246 228.519 31.5246C230.731 31.5246 232.425 32.2013 233.766 33.5314C235.107 34.8615 235.79 36.6582 235.79 38.8984V62.4434H245.79V38.0117C245.79 33.8114 244.543 30.2411 242.073 27.3476C239.602 24.4541 236.543 23.0072 232.895 23.0072Z" fill="white"/>
<path d="M249.652 62.4434H259.652V40.2985H281.981V30.9645H259.652V18.1769H283.628V8.81958H249.652V62.4434Z" fill="white"/>
<path d="M296.943 8.81958H286.943V62.4434H296.943V8.81958Z" fill="white"/>
<path d="M318.567 22.8435C312.779 22.8435 308.191 24.6402 304.802 28.2571C301.414 31.874 299.72 36.9144 299.72 43.4248C299.72 49.9353 301.414 55.0923 304.802 58.7092C308.191 62.3495 312.779 64.1696 318.52 64.1696C324.261 64.1696 328.873 62.3495 332.285 58.7092C335.696 55.069 337.414 49.982 337.414 43.4248C337.414 36.8677 335.626 31.9907 332.049 28.3271C328.473 24.6635 323.979 22.8435 318.567 22.8435ZM325.038 52.3621C323.485 54.4389 321.344 55.489 318.591 55.489C315.838 55.489 313.673 54.4623 312.143 52.3621C310.591 50.2853 309.838 47.2984 309.838 43.4248C309.838 39.5512 310.614 36.6577 312.143 34.5576C313.696 32.4808 315.838 31.4307 318.591 31.4307C321.344 31.4307 323.485 32.4808 325.038 34.5576C326.591 36.6344 327.344 39.5979 327.344 43.4248C327.344 47.2518 326.567 50.2853 325.038 52.3621Z" fill="white"/>
<path d="M389.508 24.7354L383.72 47.9303L383.061 52.5273H381.979L381.155 47.9303L375.296 24.7354H361.555L355.696 47.9303L354.779 52.5273H353.72L353.202 47.9303L347.414 24.7354H337.179L346.849 62.4446H361.814L367.343 38.923L367.932 33.9993H368.92L369.508 38.923L375.132 62.4446H390.096L399.673 24.7354H389.508Z" fill="white"/>
</g>
</svg>
